<?xml version="1.0" encoding="utf-8"?>
<!-- Generator: Adobe Illustrator 18.0.0, SVG Export Plug-In . SVG Version: 6.00 Build 0)  -->
<!DOCTYPE svg PUBLIC "-//W3C//DTD SVG 1.1//EN" "http://www.w3.org/Graphics/SVG/1.1/DTD/svg11.dtd">
<svg version="1.1" id="Capa_1" xmlns="http://www.w3.org/2000/svg" xmlns:xlink="http://www.w3.org/1999/xlink" x="0px" y="0px"
	 viewBox="0 0 1024 500" enable-background="new 0 0 1024 500" xml:space="preserve">
<filter  width="200%" height="200%" id="svg_29_blur" x="-50%" y="-50%">
	<feGaussianBlur  in="SourceGraphic" stdDeviation="0.2"></feGaussianBlur>
</filter>
<g>
	<title>Layer 1</title>
	
		<g id="svg_29" transform="matrix(1.480689353418256,0,0,1.825521384248845,-423.46929594672514,279.9098971133922) " filter="url(#svg_29_blur)">
		<text id="svg_39_1_" transform="matrix(0.9985 0 0 0.5478 811.9127 32.7312)" font-family="'ArialMT'" font-size="27.0701">INTERNET</text>
		
			<text id="svg_40_1_" transform="matrix(0.6389 0 0 0.5478 931.0089 45.9675)" fill="#84D3DB" font-family="'TimesNewRomanPSMT'" font-size="41.6723">of</text>
		
			<text id="svg_41_1_" transform="matrix(0.3778 0 0 0.5478 813.9551 65.6701)" font-family="'TimesNewRomanPS-BoldMT'" font-size="80.8344">THINGS</text>
	</g>
	<text id="svg_5" transform="matrix(1.5665 0 0 1 18.2084 253.4287)" font-family="'Arial-BoldMT'" font-size="101.67">KR VER</text>
	<text id="svg_6" transform="matrix(1.9844 0 0 1 635.8777 253.5477)" font-family="'TimesNewRomanPSMT'" font-size="35.4472">DEVICES</text>
	
		<image overflow="visible" width="180" height="180" xlink:href="1D4578E3.png"  transform="matrix(0.575 0 0 0.4248 219.6928 181.5511)">
	</image>
	<path fill="none" enable-background="new    " d="z"/>
	
		<text id="svg_8" transform="matrix(1.1444 0 0 1 26.769 288.1107)" opacity="0.5" enable-background="new    " font-family="'TimesNewRomanPS-ItalicMT'" font-size="33.723">SMART TECHNOLOGY SOLUTIONS</text>
	
		<image overflow="visible" width="512" height="512" xlink:href="1D4578E1.png"  transform="matrix(0.2324 0 0 0.2219 4.4233 309.2573)">
	</image>
	<path opacity="0.5" fill="none" enable-background="new    " d="z"/>
	
		<image overflow="visible" opacity="0.5" enable-background="new    " width="256" height="256" id="svg_10" xlink:href="1D4578E7.png"  transform="matrix(0.5139 0 0 0.3763 129.177 317.9094)">
	</image>
	
		<image overflow="visible" opacity="0.5" enable-background="new    " width="1121" height="1229" id="svg_11" xlink:href="1D4578E1.jpg"  transform="matrix(0.1152 0 0 8.032110e-002 287.0891 316.716)">
	</image>
	
		<image overflow="visible" opacity="0.5" enable-background="new    " width="800" height="600" id="svg_12" xlink:href="1D4578E0.png"  transform="matrix(0.2041 0 0 0.2252 441.8217 298.5168)">
	</image>
	
		<image overflow="visible" width="810" height="1024" xlink:href="1D4578EF.png"  transform="matrix(0.2005 0 0 0.115 593.1769 307.1843)">
	</image>
	<path opacity="0.5" fill="none" enable-background="new    " d="z"/>
	<g id="svg_64">
		<line id="svg_2" fill="none" stroke="#000000" stroke-width="15" x1="28.1" y1="167.3" x2="452.9" y2="25.7"/>
		<line id="svg_3" fill="none" stroke="#000000" stroke-width="15" x1="447" y1="25.2" x2="1013" y2="180.1"/>
		<line id="svg_4" fill="none" stroke="#000000" stroke-width="10" x1="1010.3" y1="174" x2="1012.1" y2="477.4"/>
		<line id="svg_31" fill="none" stroke="#000000" stroke-width="10" x1="872.8" y1="138.8" x2="872.8" y2="78.1"/>
		<line id="svg_36" fill="none" stroke="#000000" stroke-width="10" x1="858.5" y1="79.6" x2="989.7" y2="79.6"/>
		<line id="svg_37" fill="none" stroke="#000000" stroke-width="10" x1="974.9" y1="166.6" x2="974.9" y2="80.5"/>
	</g>
	<g id="svg_65">
		<path id="svg_55" opacity="0.5" fill="none" stroke="#000000" stroke-width="7" enable-background="new    " d="M583.3,171.8
			c36.6-12.3,30.6,26.6,30.6,26.6"/>
		<path id="svg_56" opacity="0.5" fill="none" stroke="#000000" stroke-width="7" enable-background="new    " d="M584.2,160.6
			c50.6-14.8,40.9,39.3,40.9,39.3"/>
		<path id="svg_57" opacity="0.5" fill="none" stroke="#000000" stroke-width="7" enable-background="new    " d="M587.9,150
			c58.2-17.1,47.7,48.3,47.7,48.3"/>
	</g>
</g>
</svg>
